# xmcd
#
# Track frame offsets: 
#        150
#        14760
#        31324
#        47953
#        65377
#        81567
#        102005
#        119328
#        131686
#        144080
#        158922
#        173963
#
# Disc length: 2653 seconds
#
# Revision: 0
# Processed by: cddbd v1.5.2PL0 Copyright (c) Steve Scherf et al.
# Submitted via: ExactAudioCopy v1.3
#
DISCID=a40a5b0c
DTITLE=Tim Hus - Western Star
DYEAR=2013
DGENRE=Country
TTITLE0=Western Star
TTITLE1=Master Caster
TTITLE2=Pheasant Huntin' Day
TTITLE3=Church of Country Music
TTITLE4=Halifax Blues
TTITLE5=Forgotten Sailor
TTITLE6=Inside Passage
TTITLE7=Hardcore Apple Picker
TTITLE8=Marietta Miner
TTITLE9=Madawaska River
TTITLE10=Short Go Shuffle
TTITLE11=Wild Rose Waltz
EXTD=
EXTT0=
EXTT1=
EXTT2=
EXTT3=
EXTT4=
EXTT5=
EXTT6=
EXTT7=
EXTT8=
EXTT9=
EXTT10=
EXTT11=
PLAYORDER=
